<?xml version="1.0" encoding="UTF-8" standalone="no"?>
<!-- Created with Inkscape (http://www.inkscape.org/) -->

<svg
   width="137.85715mm"
   height="44.897102mm"
   viewBox="0 0 137.85715 44.897102"
   version="1.1"
   id="svg148"
   inkscape:version="1.1.2 (b8e25be833, 2022-02-05)"
   sodipodi:docname="skills.svg"
   xmlns:inkscape="http://www.inkscape.org/namespaces/inkscape"
   xmlns:sodipodi="http://sodipodi.sourceforge.net/DTD/sodipodi-0.dtd"
   xmlns="http://www.w3.org/2000/svg"
   xmlns:svg="http://www.w3.org/2000/svg">
  <sodipodi:namedview
     id="namedview150"
     pagecolor="#ffffff"
     bordercolor="#666666"
     borderopacity="1.0"
     inkscape:pageshadow="2"
     inkscape:pageopacity="0.0"
     inkscape:pagecheckerboard="0"
     inkscape:document-units="mm"
     showgrid="false"
     fit-margin-top="0"
     fit-margin-left="0"
     fit-margin-right="0"
     fit-margin-bottom="0"
     inkscape:zoom="0.74029882"
     inkscape:cx="122.24793"
     inkscape:cy="189.11282"
     inkscape:window-width="1920"
     inkscape:window-height="1017"
     inkscape:window-x="-8"
     inkscape:window-y="-8"
     inkscape:window-maximized="1"
     inkscape:current-layer="layer1" />
  <defs
     id="defs145" />
  <g
     inkscape:label="Capa 1"
     inkscape:groupmode="layer"
     id="layer1"
     transform="translate(-33.637669,-35.902171)">
    <g
       id="g1188"
       transform="translate(0,-87.920578)">
      <path
         style="fill:#fbd51d;stroke-width:0.264583"
         d="m 59.186965,168.54344 c -0.393681,-0.39368 -0.130495,-0.61567 0.654717,-0.55222 0.457107,0.0369 0.881055,-0.0736 0.942102,-0.24561 0.06761,-0.19052 -0.229529,-0.34565 -0.760182,-0.39688 -1.135261,-0.1096 -1.60673,-1.19569 -0.991889,-2.28493 0.33111,-0.5866 0.581835,-0.70765 1.446472,-0.69835 l 1.045932,0.0112 0.07862,1.6365 c 0.0999,2.07942 -0.216827,2.70664 -1.366748,2.70664 -0.479949,0 -0.952011,-0.0794 -1.049023,-0.17639 z m 1.622317,-2.84316 c -0.04975,-0.34818 -0.273161,-0.55232 -0.604457,-0.55232 -0.62099,0 -0.847748,0.78401 -0.387244,1.33889 0.429641,0.51768 1.101868,-0.0155 0.991701,-0.78657 z m 31.186017,2.84316 c -0.393682,-0.39368 -0.130495,-0.61567 0.654716,-0.55222 0.479875,0.0388 0.880544,-0.0726 0.94809,-0.26358 0.07705,-0.21783 -0.158311,-0.33073 -0.689504,-0.33073 -0.887535,0 -1.354275,-0.5802 -1.354275,-1.68349 0,-0.99397 0.676235,-1.51823 1.809802,-1.40306 l 0.968323,0.0984 0.07862,1.62047 c 0.100097,2.0632 -0.218615,2.69062 -1.366748,2.69062 -0.479949,0 -0.95201,-0.0794 -1.049022,-0.17639 z m 1.622316,-2.84316 c -0.04975,-0.34818 -0.273161,-0.55232 -0.604456,-0.55232 -0.620991,0 -0.847749,0.78401 -0.387244,1.33889 0.429641,0.51768 1.101867,-0.0155 0.9917,-0.78657 z m 17.306735,0.86428 0.0768,-2.15527 0.97335,-0.0992 c 0.77534,-0.079 1.05791,0.0216 1.38906,0.49435 0.83616,1.19379 0.13488,3.01677 -1.07178,2.7861 -0.51883,-0.0992 -0.62917,-0.0107 -0.62917,0.50449 0,0.38625 -0.1556,0.62477 -0.40758,0.62477 -0.33997,0 -0.39483,-0.35746 -0.33073,-2.15527 z m 1.9966,-0.35827 c 0.0943,-0.73765 -0.32965,-1.299 -0.83471,-1.10519 -0.26238,0.10068 -0.42358,0.47479 -0.42358,0.983 0,0.6995 0.0878,0.80799 0.59531,0.7359 0.36032,-0.0512 0.62202,-0.29343 0.66298,-0.61371 z m 17.52713,2.12328 c 0,-0.28814 0.19773,-0.35071 0.75567,-0.23912 0.54639,0.10927 0.80055,0.0342 0.91774,-0.2712 0.12435,-0.32405 -0.008,-0.42234 -0.57047,-0.42234 -0.96157,0 -1.36753,-0.44208 -1.36753,-1.48922 0,-1.17369 0.57857,-1.68028 1.79168,-1.56877 l 0.98645,0.0907 v 1.89036 c 0,2.10138 -0.1985,2.38896 -1.65365,2.39582 -0.58331,0.003 -0.85989,-0.12147 -0.85989,-0.38621 z m 1.57696,-1.846 c 0.42669,-0.51414 0.0902,-1.52204 -0.47205,-1.41377 -0.4722,0.0909 -0.71008,0.80166 -0.47414,1.41653 0.18681,0.48682 0.54073,0.48579 0.94619,-0.003 z m 34.27408,1.97168 c -0.1759,-0.2846 -0.0794,-0.32401 0.9018,-0.36819 0.84861,-0.0382 1.0673,-0.69015 0.23149,-0.69015 -0.88769,0 -1.26558,-0.48014 -1.26558,-1.60802 0,-1.19446 0.44545,-1.60038 1.61678,-1.4733 l 0.89676,0.0973 0.0788,1.78042 c 0.048,1.08427 -0.0423,1.92628 -0.23083,2.15347 -0.35407,0.42663 -1.98356,0.50592 -2.22919,0.10848 z m 1.67212,-2.62302 c 0.0699,-0.71253 0.001,-0.84646 -0.39384,-0.77034 -0.51453,0.0991 -0.75759,0.79283 -0.50677,1.44644 0.25501,0.66455 0.80994,0.24795 0.90061,-0.6761 z M 38.957715,165.372 l 0.07682,-2.34071 1.110043,0.0218 c 1.747028,0.0343 2.404928,0.949 1.604436,2.23078 -0.261247,0.41833 -0.261247,0.63283 0,1.05116 0.180526,0.28906 0.328229,0.70578 0.328229,0.92604 0,0.70895 -0.524973,0.42721 -0.979326,-0.52558 -0.573024,-1.20164 -1.336683,-1.24717 -1.451306,-0.0865 -0.0456,0.46173 -0.23654,0.88998 -0.424312,0.95165 -0.265282,0.0871 -0.324276,-0.40979 -0.264583,-2.22859 z m 2.193486,-1.01779 c 0,-0.38059 -0.204296,-0.55268 -0.727605,-0.61289 -0.630711,-0.0726 -0.727604,0.009 -0.727604,0.61289 0,0.60384 0.09689,0.68545 0.727604,0.61288 0.523309,-0.0602 0.727605,-0.2323 0.727605,-0.61288 z m 1.963853,2.88569 c -0.531164,-0.64002 -0.441571,-2.2192 0.150466,-2.65211 0.970172,-0.70941 2.251306,-0.15404 2.251306,0.97594 0,0.40677 -0.187823,0.51027 -0.926042,0.51027 -0.666448,0 -0.926042,0.11684 -0.926042,0.41681 0,0.28995 0.221462,0.40222 0.727604,0.36884 1.111737,-0.0733 1.216057,-0.0242 0.859896,0.40497 -0.433514,0.52235 -1.695267,0.50776 -2.137188,-0.0247 z m 1.608022,-1.95965 c 0,-0.14552 -0.231098,-0.26459 -0.513551,-0.26459 -0.282454,0 -0.587137,0.11907 -0.677074,0.26459 -0.09274,0.15006 0.129545,0.26458 0.513551,0.26458 0.37239,0 0.677074,-0.11906 0.677074,-0.26458 z m 1.856906,1.99018 c -0.526002,-0.63379 -0.06786,-1.42521 0.933815,-1.61313 1.070251,-0.20078 0.959972,-0.64164 -0.160504,-0.64164 -0.835234,0 -1.045387,-0.36999 -0.359619,-0.63315 1.310516,-0.50289 1.822725,-0.0476 2.061292,1.83232 l 0.168968,1.33145 -1.165412,0.0507 c -0.739394,0.0322 -1.27988,-0.0872 -1.47854,-0.32658 z m 1.703668,-0.64898 c 0.08373,-0.13547 0.04196,-0.31445 -0.0928,-0.39774 -0.312803,-0.19332 -1.086524,0.097 -1.086524,0.40776 0,0.31314 0.984773,0.30476 1.179324,-0.01 z m 1.887249,0.62924 c -0.549788,-0.54979 -0.539408,-2.07856 0.01789,-2.63586 0.250677,-0.25068 0.698278,-0.38901 1.044554,-0.32281 0.492427,0.0941 0.62089,-0.0131 0.685845,-0.57245 0.04396,-0.37855 0.198988,-0.65852 0.344509,-0.62214 0.149312,0.0373 0.264583,1.00483 0.264583,2.22074 v 2.15458 l -0.968322,0.0993 c -0.640731,0.0657 -1.110665,-0.043 -1.389063,-0.3214 z m 1.563635,-1.31261 c 0,-0.61192 -0.118531,-0.79012 -0.525542,-0.79012 -0.55014,0 -0.822129,0.66432 -0.555969,1.35792 0.276479,0.7205 1.081511,0.29785 1.081511,-0.5678 z m 2.037207,0.0963 c 0.09846,-2.08187 0.608626,-2.12255 0.608626,-0.0485 0,0.99521 -0.115676,1.53787 -0.344043,1.61399 -0.263517,0.0878 -0.325443,-0.27855 -0.264583,-1.56545 z m 1.64283,1.26281 c -0.0769,-0.20039 -0.102926,-0.92911 -0.05784,-1.61937 0.08018,-1.22758 0.102502,-1.25684 1.020636,-1.338 1.39275,-0.1231 1.68094,0.17571 1.694944,1.7574 0.01617,1.82727 -0.586396,2.10657 -0.700191,0.32453 -0.06834,-1.07025 -0.165877,-1.27375 -0.610502,-1.27375 -0.443579,0 -0.54221,0.20326 -0.609809,1.25677 -0.07754,1.20836 -0.445209,1.65343 -0.737237,0.89242 z m 19.206345,-0.74302 c -0.161851,-0.62787 -0.417492,-1.53345 -0.568093,-2.0124 -0.272298,-0.86596 -0.115845,-1.88577 0.235413,-1.53452 0.101177,0.10118 0.371362,0.80283 0.600414,1.55923 l 0.416457,1.37527 0.358407,-1.32292 c 0.197125,-0.72761 0.44115,-1.41726 0.542282,-1.53257 0.267317,-0.30479 0.65432,0.30624 1.054457,1.66486 l 0.350661,1.19063 0.338444,-1.29101 c 0.356523,-1.35999 0.742072,-1.96475 0.993357,-1.55816 0.190788,0.30871 -0.760717,4.0242 -1.123455,4.38694 -0.19122,0.19122 -0.399185,-0.0198 -0.678654,-0.68868 -0.22162,-0.53041 -0.402947,-1.12696 -0.402947,-1.32566 0,-0.93213 -0.407977,-0.59487 -0.782161,0.64657 -0.530437,1.75983 -0.958416,1.90171 -1.334582,0.44242 z m 5.079992,-0.50722 0.07946,-1.66756 0.902679,-0.0126 c 0.496472,-0.007 0.952879,0.13625 1.014235,0.31815 0.06976,0.2068 -0.139136,0.33073 -0.557453,0.33073 -0.608647,0 -0.676285,0.11153 -0.749652,1.23609 -0.04688,0.71858 -0.224681,1.28353 -0.424685,1.3494 -0.263263,0.0867 -0.325385,-0.2782 -0.264583,-1.55424 z m 2.982724,1.29448 c -0.243803,-0.63534 -0.02458,-2.9947 0.271735,-2.92451 0.360085,0.0853 0.494583,2.72358 0.156102,3.06206 -0.185005,0.185 -0.320818,0.14134 -0.427837,-0.13755 z m 1.903333,0.14372 c -0.09701,-0.097 -0.176389,-0.6853 -0.176389,-1.3073 0,-0.622 -0.107823,-1.19756 -0.239607,-1.279 -0.247761,-0.15312 0.234471,-1.46483 0.539906,-1.46858 0.0924,-0.001 0.378555,0.31927 0.635889,0.71201 0.319678,0.48789 0.371221,0.7463 0.162721,0.8158 -0.373946,0.12465 -0.40754,1.8152 -0.04058,2.042 0.145521,0.0899 0.264583,0.27556 0.264583,0.41249 0,0.28377 -0.879657,0.33945 -1.146527,0.0726 z m 1.800834,-0.14372 c -0.243803,-0.63534 -0.02458,-2.9947 0.271735,-2.92451 0.360085,0.0853 0.494583,2.72358 0.156101,3.06206 -0.185004,0.185 -0.320817,0.14134 -0.427836,-0.13755 z m 1.835105,-0.0442 c -0.0769,-0.20039 -0.102926,-0.92911 -0.05784,-1.61937 0.08018,-1.22758 0.102503,-1.25684 1.020636,-1.338 1.392751,-0.1231 1.68094,0.17571 1.694944,1.7574 0.01617,1.82727 -0.586396,2.10657 -0.70019,0.32453 -0.06834,-1.07025 -0.165878,-1.27375 -0.610502,-1.27375 -0.44358,0 -0.542211,0.20326 -0.609809,1.25677 -0.07754,1.20836 -0.44521,1.65343 -0.737239,0.89242 z m 19.007986,0.18912 c -0.1819,-0.0734 -0.33073,-0.2949 -0.33073,-0.49223 0,-0.25355 0.32978,-0.34408 1.12448,-0.30868 1.36236,0.0607 1.57676,-0.59289 0.33073,-1.00824 -1.2008,-0.40026 -1.45521,-0.63321 -1.45521,-1.33243 0,-0.88318 1.06003,-1.54548 2.10591,-1.31576 1.19435,0.26232 1.04835,0.92689 -0.18768,0.85434 -1.24323,-0.073 -1.37812,0.60688 -0.19844,1.0001 1.19052,0.39684 1.45521,0.63285 1.45521,1.29753 0,1.12827 -1.53606,1.83324 -2.84427,1.30537 z m 7.49338,-0.24055 c -0.89579,-0.89578 -0.23175,-3.02381 0.94355,-3.02381 0.56652,0 1.20588,0.56992 1.40991,1.25677 0.16342,0.55015 0.0935,0.59532 -0.92137,0.59532 -0.76426,0 -1.06282,0.10057 -0.98183,0.33073 0.0642,0.1823 0.48965,0.31322 0.94809,0.29171 0.52304,-0.0245 0.83171,0.0877 0.83171,0.30242 0,0.7172 -1.58435,0.89258 -2.23006,0.24686 z m 1.5686,-1.96547 c -0.0899,-0.14552 -0.39462,-0.26459 -0.67708,-0.26459 -0.28245,0 -0.51355,0.11907 -0.51355,0.26459 0,0.14552 0.30469,0.26458 0.67708,0.26458 0.384,0 0.60629,-0.11452 0.51355,-0.26458 z m 1.72433,1.86056 c -0.22395,-0.41846 -0.17222,-0.63455 0.25398,-1.06075 0.29438,-0.29438 0.78038,-0.53523 1.08001,-0.53523 0.29963,0 0.4712,-0.11906 0.38126,-0.26458 -0.0899,-0.14552 -0.51368,-0.26459 -0.94166,-0.26459 -0.83523,0 -1.04538,-0.36999 -0.35962,-0.63315 1.29852,-0.49828 2.12347,0.2558 2.27088,2.07577 l 0.0847,1.04573 -1.24415,0.0812 c -1.02002,0.0665 -1.29481,-0.0135 -1.52539,-0.44436 z m 1.76513,-0.63639 c -0.0576,-0.16397 -0.33055,-0.25705 -0.60649,-0.20683 -0.69704,0.12684 -0.81339,0.29577 -0.38576,0.56006 0.45908,0.28373 1.13193,0.0442 0.99225,-0.35323 z m 1.78791,0.81836 c -0.24084,-0.62763 -0.003,-4.29149 0.27888,-4.29149 0.14552,0 0.3015,0.58097 0.34662,1.29104 l 0.082,1.29104 0.77786,-0.74523 c 0.53072,-0.50846 0.77785,-0.62022 0.77785,-0.35177 0,0.2164 -0.12919,0.52265 -0.2871,0.68056 -0.20641,0.20641 -0.16922,0.51503 0.13229,1.09811 0.7599,1.46948 0.28552,1.98499 -0.54023,0.5871 -0.4897,-0.829 -0.89246,-0.83549 -0.89246,-0.0144 0,0.62618 -0.4848,0.95263 -0.67575,0.45503 z m 3.58617,-1.23317 c 0,-0.86453 0.11906,-1.64547 0.26458,-1.7354 0.16612,-0.10267 0.26459,0.48232 0.26459,1.57188 0,0.98055 -0.11509,1.73541 -0.26459,1.73541 -0.1467,0 -0.26458,-0.70035 -0.26458,-1.57189 z m 1.7021,1.22431 c -0.0804,-0.20961 -0.10936,-0.94827 -0.0643,-1.64145 0.0792,-1.21772 0.11229,-1.26362 0.97872,-1.35726 0.49322,-0.0533 1.05561,0.0349 1.24977,0.19607 0.44483,0.36917 0.73757,1.87039 0.50661,2.59805 -0.28202,0.88857 -0.66841,0.63587 -0.67281,-0.44002 -0.005,-1.21225 -0.33164,-1.7845 -0.89528,-1.56821 -0.29002,0.11129 -0.42358,0.49395 -0.42358,1.21356 0,1.07385 -0.41578,1.6856 -0.67915,0.99926 z m 16.13654,-0.008 c -0.23617,-0.61546 0.008,-4.27472 0.28532,-4.27472 0.14552,0 0.29956,0.8632 0.34232,1.91823 l 0.0777,1.91823 h 1.04674 c 0.75405,0 1.04674,0.11097 1.04674,0.39687 0,0.53224 -2.59577,0.57062 -2.79886,0.0414 z m 3.48863,-0.063 c -0.20671,-0.53867 -0.20705,-2.06299 -5.3e-4,-2.60103 0.31558,-0.8224 0.63373,-0.0956 0.63373,1.44766 0,1.50579 -0.29306,2.03964 -0.63315,1.15337 z m 1.80819,0.0301 c -0.55874,-0.42262 -0.42976,-0.48329 0.87548,-0.41183 1.11801,0.0612 1.08947,-0.15502 -0.0853,-0.64586 -0.73097,-0.30542 -0.92584,-0.52496 -0.8599,-0.96872 0.11404,-0.76739 0.77352,-1.14176 1.63182,-0.92634 0.95088,0.23865 0.89088,0.69537 -0.0913,0.69537 -0.43656,0 -0.79375,0.11907 -0.79375,0.26459 0,0.14552 0.22962,0.26458 0.51027,0.26458 1.10101,0 1.58026,1.31119 0.69965,1.91418 -0.4622,0.31649 -1.33658,0.23031 -1.88696,-0.18597 z m 3.65446,0.0577 c -0.31692,-0.39949 -0.58822,-2.68523 -0.40285,-3.3941 0.15642,-0.59814 0.86501,-0.68958 0.86501,-0.11163 0,0.21828 0.11906,0.39687 0.26459,0.39687 0.14552,0 0.26458,0.1786 0.26458,0.39688 0,0.21828 -0.11906,0.39687 -0.26458,0.39687 -0.14553,0 -0.26459,0.41672 -0.26459,0.92605 0,0.50932 0.11906,0.92604 0.26459,0.92604 0.14552,0 0.26458,0.17859 0.26458,0.39687 0,0.4814 -0.62863,0.52335 -0.99133,0.0661 z m 2.2481,0.045 c -0.59698,-0.34771 -0.6282,-2.15708 -0.0473,-2.73803 0.7936,-0.7936 2.23006,-0.28849 2.23006,0.78416 0,0.56892 -0.11818,0.65215 -0.92604,0.65215 -0.67978,0 -0.92604,0.11474 -0.92604,0.43149 0,0.34537 0.18483,0.4015 0.92604,0.28122 0.66952,-0.10865 0.92604,-0.0528 0.92604,0.20166 0,0.64497 -1.33406,0.8817 -2.18281,0.38735 z m 1.38906,-2.09547 c 0,-0.14552 -0.23812,-0.26459 -0.52916,-0.26459 -0.29105,0 -0.52917,0.11907 -0.52917,0.26459 0,0.14552 0.23812,0.26458 0.52917,0.26458 0.29104,0 0.52916,-0.11906 0.52916,-0.26458 z m 1.71264,2.06114 c -0.0862,-0.22472 -0.1199,-0.97335 -0.0748,-1.66361 0.081,-1.23979 0.094,-1.25609 1.06838,-1.34228 1.13156,-0.10009 1.79172,0.55417 1.79172,1.77573 0,1.83005 -0.73053,2.08367 -0.8454,0.2935 -0.0676,-1.05351 -0.16623,-1.25677 -0.60981,-1.25677 -0.427,0 -0.54535,0.20433 -0.61299,1.05833 -0.0934,1.17929 -0.47085,1.77677 -0.71708,1.1351 z m 3.68719,-0.0442 c -0.22836,-0.5951 0.002,-2.94294 0.28871,-2.94294 0.14552,0 0.30003,0.74414 0.34336,1.65364 0.0503,1.05552 -0.0245,1.65365 -0.20674,1.65365 -0.15703,0 -0.34843,-0.16396 -0.42533,-0.36435 z m 1.79675,-1.23355 0.0795,-1.65088 0.89676,-0.0972 c 1.2838,-0.13917 1.61679,0.26146 1.61679,1.94523 0,1.82878 -0.6227,1.82125 -0.74211,-0.009 -0.0657,-1.00736 -0.17318,-1.23608 -0.58081,-1.23608 -0.40763,0 -0.51509,0.22872 -0.58082,1.23609 -0.0469,0.71858 -0.22468,1.28353 -0.42468,1.34941 -0.26307,0.0866 -0.32534,-0.27523 -0.26459,-1.53756 z M 53.827187,163.59329 c -0.224158,-0.58415 0.07406,-0.88237 0.478216,-0.47822 0.238628,0.23863 0.239644,0.38654 0.0043,0.62192 -0.235379,0.23538 -0.350123,0.2012 -0.482479,-0.1437 z m 28.863597,0.0995 c -0.105609,-0.17088 -0.07296,-0.42975 0.07257,-0.57528 0.176389,-0.17639 0.328591,-0.16102 0.456602,0.0461 0.105608,0.17088 0.07296,0.42975 -0.07256,0.57527 -0.17639,0.17639 -0.328591,0.16102 -0.456602,-0.0461 z m 3.704167,0 c -0.105609,-0.17088 -0.07296,-0.42975 0.07256,-0.57528 0.17639,-0.17639 0.328592,-0.16102 0.456602,0.0461 0.105609,0.17088 0.07296,0.42975 -0.07256,0.57527 -0.17639,0.17639 -0.328592,0.16102 -0.456602,-0.0461 z m 60.063079,0.004 c -0.19514,-0.31574 0.0525,-0.79806 0.40983,-0.79806 0.32194,0 0.32403,0.71612 0.003,0.91474 -0.13547,0.0837 -0.32109,0.0312 -0.41249,-0.11668 z m 14.55209,0 c -0.19515,-0.31574 0.0525,-0.79806 0.40982,-0.79806 0.32195,0 0.32403,0.71612 0.003,0.91474 -0.13546,0.0837 -0.32108,0.0312 -0.41249,-0.11668 z m -35.9747,-0.25061 c -0.0837,-0.13547 -0.0312,-0.32109 0.11667,-0.41249 0.31575,-0.19515 0.79807,0.0525 0.79807,0.40982 0,0.32194 -0.71613,0.32403 -0.91474,0.003 z m -78.063386,-5.73532 c -3.073032,-0.6342 -6.013961,-2.24923 -8.350411,-4.58568 -6.639156,-6.63916 -6.646085,-16.91415 -0.01588,-23.55247 2.164712,-2.16737 3.983569,-3.27282 7.043375,-4.28076 2.737717,-0.90185 6.85995,-0.85134 9.810329,0.1202 3.518455,1.1586 6.408364,3.26426 8.496863,6.19103 1.495931,2.09636 2.580537,4.84837 2.991562,7.5906 0.938718,6.26282 -2.305513,13.00778 -7.887539,16.39868 -1.914768,1.16316 -3.274494,1.66845 -5.82772,2.16568 -2.373148,0.46215 -3.846042,0.45103 -6.260579,-0.0473 z m 7.011458,-1.20148 c 0.654844,-0.13809 2.171528,-0.72425 3.370411,-1.30258 4.044863,-1.95122 7.35417,-6.16888 8.24742,-10.5112 1.081037,-5.25522 -0.494393,-10.60727 -4.21862,-14.3315 -3.080478,-3.08048 -6.600045,-4.50949 -11.092821,-4.5039 -4.408164,0.005 -7.658126,1.32499 -10.744866,4.36249 -3.356417,3.30286 -4.683673,6.44254 -4.697662,11.1125 -0.0074,2.46796 0.09472,3.20115 0.671653,4.82288 1.24042,3.48673 3.212505,6.09672 6.075868,8.04119 3.658645,2.48454 7.852638,3.2666 12.388617,2.31012 z m -5.530146,-5.79767 c -1.454489,-1.31498 -4.464021,-2.81013 -6.366806,-3.16307 -1.635514,-0.30336 -2.204241,-0.67453 -1.467025,-0.95743 0.764196,-0.29325 3.507235,0.39187 5.406448,1.35036 1.903767,0.96078 4.253363,2.87779 4.253363,3.47027 0,0.6335 -0.609227,0.39991 -1.82598,-0.70013 z m 2.61973,0.72638 c 0,-0.65777 2.504725,-2.85203 4.255169,-3.72774 1.983774,-0.99244 5.143518,-1.71252 5.583589,-1.27245 0.423016,0.42302 0.0034,0.85041 -0.834966,0.85041 -1.073471,0 -3.758968,0.87941 -5.091716,1.66738 -0.623673,0.36873 -1.6046,1.15645 -2.179836,1.75048 -1.053767,1.0882 -1.73224,1.37487 -1.73224,0.73192 z m -1.489787,-1.71497 c -1.600729,-1.85878 -4.24493,-3.13358 -8.167505,-3.93766 l -1.058333,-0.21694 v -5.68854 -5.68854 l 1.022662,-0.0839 c 1.738042,-0.14265 5.191429,0.68488 7.336946,1.75813 l 2.009606,1.00527 0.887542,-0.60815 c 1.655262,-1.13421 6.440807,-2.3518 8.479046,-2.15734 l 0.901698,0.086 v 5.68735 5.68736 l -1.190625,0.21521 c -4.313542,0.77968 -6.933256,2.07965 -8.271984,4.10478 -0.402246,0.60848 -0.759434,1.10628 -0.79375,1.10621 -0.03431,-7e-5 -0.554202,-0.57123 -1.155303,-1.26923 z m 0.696037,-6.5247 v -5.4128 l -1.200098,-0.70331 c -1.571267,-0.92082 -4.081385,-1.6914 -6.14209,-1.88555 l -1.653646,-0.1558 v 4.88451 4.88451 l 1.764141,0.35066 c 1.90908,0.37946 5.51475,2.04749 6.29887,2.91393 0.267118,0.29516 0.586279,0.53666 0.709247,0.53666 0.122965,0 0.223576,-2.43576 0.223576,-5.41281 z m 5.027083,2.73647 c 0.800364,-0.30551 2.199349,-0.68594 3.108854,-0.84539 l 1.653646,-0.28992 v -4.84105 -4.84105 l -0.992188,0.005 c -2.402586,0.0111 -6.224571,1.22761 -7.408333,2.35798 -0.578464,0.55237 -0.595312,0.71782 -0.595312,5.84575 v 5.2773 l 1.389062,-1.05637 c 0.763984,-0.581 2.043906,-1.30633 2.844271,-1.61184 z m 60.589581,11.51352 c -10.19537,-2.72123 -15.49569,-13.70531 -11.17201,-23.15224 3.94302,-8.61518 14.2097,-12.21503 22.77226,-7.98473 2.97499,1.46977 5.96416,4.5025 7.3903,7.49798 1.3324,2.79861 1.70995,4.43105 1.70995,7.39347 0,2.96243 -0.37755,4.59486 -1.70995,7.39347 -0.853,1.79165 -1.49162,2.66207 -3.22465,4.3951 -2.35137,2.35137 -4.63897,3.67172 -7.7343,4.46405 -2.02784,0.51908 -6.07362,0.5155 -8.0316,-0.007 z m 7.43884,-1.01529 c 5.56487,-1.17957 10.41252,-5.94853 11.73045,-11.54005 2.0175,-8.55957 -3.30596,-17.00174 -11.93095,-18.92062 -6.12907,-1.36359 -12.9093,1.47381 -16.34099,6.83839 -2.36256,3.69329 -3.05774,8.72985 -1.77915,12.88997 2.41368,7.85334 10.24891,12.44325 18.32064,10.73231 z m -8.0562,-5.35245 c -0.097,-0.097 -0.17639,-0.92074 -0.17639,-1.8305 0,-1.59859 -0.0305,-1.67295 -0.90754,-2.21501 -2.31487,-1.43067 -3.96097,-4.40704 -3.95721,-7.15518 0.009,-6.83513 8.2156,-11.08338 14.71644,-7.61847 6.47614,3.45174 6.32773,12.10029 -0.26331,15.34505 -1.42164,0.69987 -2.14918,0.87801 -4.06267,0.99475 l -2.3309,0.14221 -1.27576,1.25677 c -1.31836,1.29873 -1.44549,1.37755 -1.74266,1.08038 z m 4.89185,-3.33359 c 3.70763,-0.21453 6.2181,-1.65902 7.77819,-4.47545 0.6686,-1.20702 0.77953,-1.68966 0.77953,-3.39165 0,-1.702 -0.11093,-2.18464 -0.77953,-3.39166 -0.94912,-1.71345 -2.16252,-2.81513 -4.1031,-3.72534 -1.2399,-0.58156 -1.83631,-0.68821 -3.84854,-0.68821 -2.01999,0 -2.60683,0.10577 -3.86821,0.69722 -2.89988,1.35973 -4.62682,3.60366 -4.91143,6.38178 -0.26912,2.62699 1.00645,5.28142 3.34549,6.96185 1.30217,0.93552 1.33311,0.98912 1.33311,2.30954 v 1.35179 l 0.99219,-0.94868 c 0.94878,-0.90717 1.09238,-0.95447 3.2823,-1.08119 z m -5.40985,-6.70941 c -0.38182,-0.38182 -0.17033,-1.1275 0.36825,-1.29844 0.66906,-0.21235 1.1159,0.16779 0.98766,0.84025 -0.0946,0.49582 -1.00921,0.80489 -1.35591,0.45819 z m 4.46661,-0.26464 c -0.22442,-0.58483 0.45507,-1.28426 1.03242,-1.06271 0.26858,0.10307 0.40343,0.3963 0.35124,0.76379 -0.1055,0.74297 -1.12846,0.96397 -1.38366,0.29892 z m 4.49791,0 c -0.22442,-0.58483 0.45508,-1.28426 1.03243,-1.06271 0.26857,0.10307 0.40342,0.3963 0.35124,0.76379 -0.1055,0.74297 -1.12846,0.96397 -1.38367,0.29892 z M 81.559648,156.9573 c -3.585067,-0.81633 -7.415303,-3.2894 -9.581928,-6.18678 -6.883551,-9.20521 -2.852626,-22.27431 8.02314,-26.0127 2.044613,-0.7028 6.370217,-0.95332 8.708123,-0.50432 4.653619,0.89372 9.451943,4.64987 11.512337,9.01189 1.39036,2.9435 1.70149,4.33673 1.69222,7.57744 -0.0131,4.56962 -1.60613,8.33068 -4.915402,11.60486 -1.923452,1.90305 -3.992798,3.18148 -6.693889,4.13544 -2.014601,0.71151 -6.432863,0.90056 -8.744601,0.37417 z m 6.730256,-1.06485 c 5.829086,-1.101 10.779969,-5.85851 12.151426,-11.67682 0.61415,-2.60553 0.39064,-6.51588 -0.507894,-8.88556 -1.698828,-4.48027 -5.208968,-7.90401 -9.766858,-9.52643 -2.405451,-0.85625 -7.271782,-0.86105 -9.724752,-0.01 -6.1906,2.14884 -10.220545,7.36877 -10.747227,13.92072 -0.463381,5.76452 3.02936,11.92518 8.321466,14.6778 3.365079,1.75031 6.514052,2.21002 10.273839,1.49988 z m -11.108399,-6.37396 c 1.040101,-0.38526 1.097103,-0.45994 0.966312,-1.26592 -0.09848,-0.60686 -0.0093,-0.96415 0.305935,-1.22577 0.703955,-0.58424 1.339384,-0.007 1.269021,1.1531 -0.05543,0.9138 -0.01072,0.96451 1.190625,1.34992 l 1.248219,0.40045 -1.322916,-0.13414 c -1.681957,-0.17054 -2.113116,-0.17106 -3.571875,-0.004 l -1.190625,0.1361 1.105304,-0.40942 z m 1.937404,-1.58434 c 0,-0.22687 -0.121005,-0.3377 -0.268899,-0.2463 -0.147894,0.0914 -0.2004,0.27703 -0.116676,0.41249 0.226809,0.36699 0.385575,0.29856 0.385575,-0.16619 z m 3.882795,1.80156 c -0.06445,-0.10914 -0.01765,-0.91306 0.104018,-1.78649 0.176863,-1.26973 1.017953,-3.18716 4.196027,-9.56567 2.186157,-4.38768 4.164888,-8.16767 4.397185,-8.39997 0.544745,-0.54474 1.806961,-0.54321 2.26006,0.003 0.324548,0.39106 0.77393,1.10405 1.175665,1.86533 0.08883,0.16833 -0.829236,2.25192 -2.040144,4.63021 -2.012979,3.9536 -2.261489,4.32346 -2.899955,4.316 -0.633708,-0.007 -0.853993,0.30746 -2.38125,3.40352 -1.323591,2.68319 -1.957406,3.65948 -2.968328,4.57222 -1.283846,1.15915 -1.622523,1.33592 -1.843278,0.96211 z m 1.529863,-1.89995 c 0.08373,-0.13547 0.03122,-0.32109 -0.116676,-0.41249 -0.147894,-0.0914 -0.268899,0.0194 -0.268899,0.2463 0,0.46475 0.158766,0.53318 0.385575,0.16619 z m 3.253417,-5.71591 c 1.937838,-3.88491 2.249599,-4.68004 1.917258,-4.88985 -0.548203,-0.34611 -0.75928,-0.021 -3.07477,4.73645 -1.833446,3.767 -2.139585,4.79269 -1.430478,4.79269 0.150622,0 1.315217,-2.08768 2.58799,-4.63929 z m 2.988673,-3.05926 c 0.304149,-0.59619 0.493469,-1.14351 0.420708,-1.21627 -0.120684,-0.12068 -1.227539,1.82462 -1.227539,2.15741 0,0.39478 0.309432,0.0338 0.806831,-0.94114 z m 1.42789,-5.00149 c 1.210889,-2.3795 1.440119,-3.26291 0.92869,-3.57899 -0.50288,-0.3108 -1.125747,0.50766 -2.309363,3.03457 -1.087739,2.32221 -1.137663,2.52202 -0.708557,2.83579 0.253897,0.18566 0.55675,0.27877 0.673002,0.20692 0.116253,-0.0718 0.753555,-1.19608 1.416228,-2.49829 z m 58.354863,22.50799 c -9.6747,-2.60483 -14.96005,-13.24099 -11.14771,-22.43347 0.98761,-2.38138 1.93729,-3.77298 3.84344,-5.63193 1.89076,-1.84394 4.10015,-3.18931 6.56191,-3.99577 2.78772,-0.91324 7.43635,-0.91054 10.23447,0.006 5.20495,1.70482 9.65312,6.41362 11.01833,11.66394 0.57019,2.1928 0.5707,6.44528 0.001,8.57456 -1.06683,3.98766 -4.68461,8.55521 -8.25759,10.42545 -3.50983,1.83719 -8.49534,2.40323 -12.2539,1.39127 z m 9.26042,-1.33955 c 5.00429,-1.73904 8.89383,-5.93065 10.18073,-10.97138 0.51559,-2.01951 0.51605,-5.67162 0.001,-7.69403 -1.42209,-5.58356 -6.22962,-10.17452 -11.90159,-11.36537 -3.65185,-0.76671 -6.61647,-0.37981 -10.07736,1.31518 -1.95375,0.95686 -2.74724,1.5393 -4.23333,3.10735 -3.10886,3.28034 -4.42088,6.51796 -4.42612,10.92215 -0.009,7.19037 4.8183,13.27709 11.96781,15.09156 2.16693,0.54995 6.3088,0.35211 8.4888,-0.40546 z m -10.84779,-6.91356 c -1.47357,-0.58759 -2.91055,-2.65632 -2.91055,-4.19013 0,-1.21101 0.63593,-0.98402 0.99401,0.35481 0.68757,2.57073 2.777,3.78936 5.0251,2.93081 0.9332,-0.3564 1.3779,-0.76165 2.14327,-1.95315 1.8596,-2.89497 3.54483,-6.50833 3.67701,-7.88402 0.33632,-3.50015 -2.95152,-6.26235 -6.36121,-5.34422 -1.36572,0.36775 -3.29317,2.21698 -3.52644,3.38331 -0.1597,0.79849 -0.69419,1.1008 -1.0185,0.57607 -0.25162,-0.40713 0.61022,-2.18592 1.52757,-3.15281 2.45835,-2.59113 6.6992,-2.50162 8.92419,0.18836 1.04919,1.26845 1.64291,3.26913 1.41745,4.77643 -0.17922,1.19818 -3.09346,7.16706 -4.24572,8.696 -1.2296,1.63157 -3.78002,2.36268 -5.64618,1.61854 z m 13.32883,-3.26586 c -1.79115,-1.86934 -2.36088,-4.4027 -1.53513,-6.82613 0.45018,-1.3212 2.30403,-3.63368 2.91303,-3.63368 0.61696,0 0.42931,0.53653 -0.57736,1.6508 -1.22796,1.3592 -1.69408,2.50658 -1.69408,4.17003 0,1.66346 0.46612,2.81083 1.69408,4.17004 1.72663,1.91117 0.99308,2.34087 -0.80054,0.46894 z m -12.58553,-0.80874 c -0.74396,-0.74396 1.93318,-3.93318 3.55406,-4.23386 1.06724,-0.19798 1.91164,-0.0106 1.67533,0.37176 -0.0804,0.13005 -0.56672,0.31536 -1.08077,0.4118 -1.1838,0.22208 -2.65661,1.50298 -3.08255,2.6809 -0.29976,0.82899 -0.71024,1.12523 -1.06607,0.7694 z m 14.00728,-0.58909 c -1.81356,-1.90103 -1.67974,-4.93647 0.2997,-6.79805 0.62384,-0.58669 0.90309,-0.70376 1.13221,-0.47464 0.22912,0.22911 0.0723,0.56069 -0.63565,1.34435 -0.51688,0.57212 -1.01898,1.40083 -1.11579,1.84157 -0.25432,1.15792 0.25623,2.73945 1.16561,3.61069 0.7721,0.73973 0.84141,1.20368 0.1798,1.20368 -0.18246,0 -0.64411,-0.32742 -1.02588,-0.7276 z m 1.23144,-1.41684 c -1.09941,-1.21484 -0.39383,-4.20556 0.99219,-4.20556 0.6338,0 0.61926,0.32851 -0.041,0.92605 -0.71179,0.64415 -0.71526,2.26311 -0.006,2.90477 0.54096,0.48956 0.49319,0.93168 -0.10066,0.93168 -0.18714,0 -0.56706,-0.25062 -0.84428,-0.55694 z m -9.71796,-3.05665 c -0.10177,-0.10176 -0.1123,-0.57273 -0.0234,-1.0466 0.20596,-1.09788 -0.29537,-2.63087 -1.02824,-3.14419 -0.31289,-0.21915 -1.13531,-0.3977 -1.83185,-0.3977 -0.92971,0 -1.26404,-0.1018 -1.26404,-0.38489 0,-0.58655 1.6981,-0.80385 2.85142,-0.3649 1.50601,0.57319 2.21533,1.83118 2.12069,3.76107 -0.0715,1.45763 -0.37109,2.03072 -0.82459,1.57721 z"
         id="path1192" />
      <path
         style="fill:#5b5b5b;stroke-width:0.264583"
         d="m 59.186965,168.54344 c -0.393681,-0.39368 -0.130495,-0.61567 0.654717,-0.55222 0.457107,0.0369 0.881055,-0.0736 0.942102,-0.24561 0.06761,-0.19052 -0.229529,-0.34565 -0.760182,-0.39688 -1.135261,-0.1096 -1.60673,-1.19569 -0.991889,-2.28493 0.33111,-0.5866 0.581835,-0.70765 1.446472,-0.69835 l 1.045932,0.0112 0.07862,1.6365 c 0.0999,2.07942 -0.216827,2.70664 -1.366748,2.70664 -0.479949,0 -0.952011,-0.0794 -1.049023,-0.17639 z m 1.622317,-2.84316 c -0.04975,-0.34818 -0.273161,-0.55232 -0.604457,-0.55232 -0.62099,0 -0.847748,0.78401 -0.387244,1.33889 0.429641,0.51768 1.101868,-0.0155 0.991701,-0.78657 z m 31.186017,2.84316 c -0.393682,-0.39368 -0.130495,-0.61567 0.654716,-0.55222 0.479875,0.0388 0.880544,-0.0726 0.94809,-0.26358 0.07705,-0.21783 -0.158311,-0.33073 -0.689504,-0.33073 -0.887535,0 -1.354275,-0.5802 -1.354275,-1.68349 0,-0.99397 0.676235,-1.51823 1.809802,-1.40306 l 0.968323,0.0984 0.07862,1.62047 c 0.100097,2.0632 -0.218615,2.69062 -1.366748,2.69062 -0.479949,0 -0.95201,-0.0794 -1.049022,-0.17639 z m 1.622316,-2.84316 c -0.04975,-0.34818 -0.273161,-0.55232 -0.604456,-0.55232 -0.620991,0 -0.847749,0.78401 -0.387244,1.33889 0.429641,0.51768 1.101867,-0.0155 0.9917,-0.78657 z m 17.306735,0.86428 0.0768,-2.15527 0.97335,-0.0992 c 0.77534,-0.079 1.05791,0.0216 1.38906,0.49435 0.83616,1.19379 0.13488,3.01677 -1.07178,2.7861 -0.51883,-0.0992 -0.62917,-0.0107 -0.62917,0.50449 0,0.38625 -0.1556,0.62477 -0.40758,0.62477 -0.33997,0 -0.39483,-0.35746 -0.33073,-2.15527 z m 1.9966,-0.35827 c 0.0943,-0.73765 -0.32965,-1.299 -0.83471,-1.10519 -0.26238,0.10068 -0.42358,0.47479 -0.42358,0.983 0,0.6995 0.0878,0.80799 0.59531,0.7359 0.36032,-0.0512 0.62202,-0.29343 0.66298,-0.61371 z m 17.52713,2.12328 c 0,-0.28814 0.19773,-0.35071 0.75567,-0.23912 0.54639,0.10927 0.80055,0.0342 0.91774,-0.2712 0.12435,-0.32405 -0.008,-0.42234 -0.57047,-0.42234 -0.96157,0 -1.36753,-0.44208 -1.36753,-1.48922 0,-1.17369 0.57857,-1.68028 1.79168,-1.56877 l 0.98645,0.0907 v 1.89036 c 0,2.10138 -0.1985,2.38896 -1.65365,2.39582 -0.58331,0.003 -0.85989,-0.12147 -0.85989,-0.38621 z m 1.57696,-1.846 c 0.42669,-0.51414 0.0902,-1.52204 -0.47205,-1.41377 -0.4722,0.0909 -0.71008,0.80166 -0.47414,1.41653 0.18681,0.48682 0.54073,0.48579 0.94619,-0.003 z m 34.27408,1.97168 c -0.1759,-0.2846 -0.0794,-0.32401 0.9018,-0.36819 0.84861,-0.0382 1.0673,-0.69015 0.23149,-0.69015 -0.88769,0 -1.26558,-0.48014 -1.26558,-1.60802 0,-1.19446 0.44545,-1.60038 1.61678,-1.4733 l 0.89676,0.0973 0.0788,1.78042 c 0.048,1.08427 -0.0423,1.92628 -0.23083,2.15347 -0.35407,0.42663 -1.98356,0.50592 -2.22919,0.10848 z m 1.67212,-2.62302 c 0.0699,-0.71253 0.001,-0.84646 -0.39384,-0.77034 -0.51453,0.0991 -0.75759,0.79283 -0.50677,1.44644 0.25501,0.66455 0.80994,0.24795 0.90061,-0.6761 z M 38.957715,165.372 l 0.07682,-2.34071 1.110043,0.0218 c 1.747028,0.0343 2.404928,0.949 1.604436,2.23078 -0.261247,0.41833 -0.261247,0.63283 0,1.05116 0.180526,0.28906 0.328229,0.70578 0.328229,0.92604 0,0.70895 -0.524973,0.42721 -0.979326,-0.52558 -0.573024,-1.20164 -1.336683,-1.24717 -1.451306,-0.0865 -0.0456,0.46173 -0.23654,0.88998 -0.424312,0.95165 -0.265282,0.0871 -0.324276,-0.40979 -0.264583,-2.22859 z m 2.193486,-1.01779 c 0,-0.38059 -0.204296,-0.55268 -0.727605,-0.61289 -0.630711,-0.0726 -0.727604,0.009 -0.727604,0.61289 0,0.60384 0.09689,0.68545 0.727604,0.61288 0.523309,-0.0602 0.727605,-0.2323 0.727605,-0.61288 z m 1.963853,2.88569 c -0.531164,-0.64002 -0.441571,-2.2192 0.150466,-2.65211 0.970172,-0.70941 2.251306,-0.15404 2.251306,0.97594 0,0.40677 -0.187823,0.51027 -0.926042,0.51027 -0.666448,0 -0.926042,0.11684 -0.926042,0.41681 0,0.28995 0.221462,0.40222 0.727604,0.36884 1.111737,-0.0733 1.216057,-0.0242 0.859896,0.40497 -0.433514,0.52235 -1.695267,0.50776 -2.137188,-0.0247 z m 1.608022,-1.95965 c 0,-0.14552 -0.231098,-0.26459 -0.513551,-0.26459 -0.282454,0 -0.587137,0.11907 -0.677074,0.26459 -0.09274,0.15006 0.129545,0.26458 0.513551,0.26458 0.37239,0 0.677074,-0.11906 0.677074,-0.26458 z m 1.856906,1.99018 c -0.526002,-0.63379 -0.06786,-1.42521 0.933815,-1.61313 1.070251,-0.20078 0.959972,-0.64164 -0.160504,-0.64164 -0.835234,0 -1.045387,-0.36999 -0.359619,-0.63315 1.310516,-0.50289 1.822725,-0.0476 2.061292,1.83232 l 0.168968,1.33145 -1.165412,0.0507 c -0.739394,0.0322 -1.27988,-0.0872 -1.47854,-0.32658 z m 1.703668,-0.64898 c 0.08373,-0.13547 0.04196,-0.31445 -0.0928,-0.39774 -0.312803,-0.19332 -1.086524,0.097 -1.086524,0.40776 0,0.31314 0.984773,0.30476 1.179324,-0.01 z m 1.887249,0.62924 c -0.549788,-0.54979 -0.539408,-2.07856 0.01789,-2.63586 0.250677,-0.25068 0.698278,-0.38901 1.044554,-0.32281 0.492427,0.0941 0.62089,-0.0131 0.685845,-0.57245 0.04396,-0.37855 0.198988,-0.65852 0.344509,-0.62214 0.149312,0.0373 0.264583,1.00483 0.264583,2.22074 v 2.15458 l -0.968322,0.0993 c -0.640731,0.0657 -1.110665,-0.043 -1.389063,-0.3214 z m 1.563635,-1.31261 c 0,-0.61192 -0.118531,-0.79012 -0.525542,-0.79012 -0.55014,0 -0.822129,0.66432 -0.555969,1.35792 0.276479,0.7205 1.081511,0.29785 1.081511,-0.5678 z m 2.037207,0.0963 c 0.09846,-2.08187 0.608626,-2.12255 0.608626,-0.0485 0,0.99521 -0.115676,1.53787 -0.344043,1.61399 -0.263517,0.0878 -0.325443,-0.27855 -0.264583,-1.56545 z m 1.64283,1.26281 c -0.0769,-0.20039 -0.102926,-0.92911 -0.05784,-1.61937 0.08018,-1.22758 0.102502,-1.25684 1.020636,-1.338 1.39275,-0.1231 1.68094,0.17571 1.694944,1.7574 0.01617,1.82727 -0.586396,2.10657 -0.700191,0.32453 -0.06834,-1.07025 -0.165877,-1.27375 -0.610502,-1.27375 -0.443579,0 -0.54221,0.20326 -0.609809,1.25677 -0.07754,1.20836 -0.445209,1.65343 -0.737237,0.89242 z m 19.206345,-0.74302 c -0.161851,-0.62787 -0.417492,-1.53345 -0.568093,-2.0124 -0.272298,-0.86596 -0.115845,-1.88577 0.235413,-1.53452 0.101177,0.10118 0.371362,0.80283 0.600414,1.55923 l 0.416457,1.37527 0.358407,-1.32292 c 0.197125,-0.72761 0.44115,-1.41726 0.542282,-1.53257 0.267317,-0.30479 0.65432,0.30624 1.054457,1.66486 l 0.350661,1.19063 0.338444,-1.29101 c 0.356523,-1.35999 0.742072,-1.96475 0.993357,-1.55816 0.190788,0.30871 -0.760717,4.0242 -1.123455,4.38694 -0.19122,0.19122 -0.399185,-0.0198 -0.678654,-0.68868 -0.22162,-0.53041 -0.402947,-1.12696 -0.402947,-1.32566 0,-0.93213 -0.407977,-0.59487 -0.782161,0.64657 -0.530437,1.75983 -0.958416,1.90171 -1.334582,0.44242 z m 5.079992,-0.50722 0.07946,-1.66756 0.902679,-0.0126 c 0.496472,-0.007 0.952879,0.13625 1.014235,0.31815 0.06976,0.2068 -0.139136,0.33073 -0.557453,0.33073 -0.608647,0 -0.676285,0.11153 -0.749652,1.23609 -0.04688,0.71858 -0.224681,1.28353 -0.424685,1.3494 -0.263263,0.0867 -0.325385,-0.2782 -0.264583,-1.55424 z m 2.982724,1.29448 c -0.243803,-0.63534 -0.02458,-2.9947 0.271735,-2.92451 0.360085,0.0853 0.494583,2.72358 0.156102,3.06206 -0.185005,0.185 -0.320818,0.14134 -0.427837,-0.13755 z m 1.903333,0.14372 c -0.09701,-0.097 -0.176389,-0.6853 -0.176389,-1.3073 0,-0.622 -0.107823,-1.19756 -0.239607,-1.279 -0.247761,-0.15312 0.234471,-1.46483 0.539906,-1.46858 0.0924,-0.001 0.378555,0.31927 0.635889,0.71201 0.319678,0.48789 0.371221,0.7463 0.162721,0.8158 -0.373946,0.12465 -0.40754,1.8152 -0.04058,2.042 0.145521,0.0899 0.264583,0.27556 0.264583,0.41249 0,0.28377 -0.879657,0.33945 -1.146527,0.0726 z m 1.800834,-0.14372 c -0.243803,-0.63534 -0.02458,-2.9947 0.271735,-2.92451 0.360085,0.0853 0.494583,2.72358 0.156101,3.06206 -0.185004,0.185 -0.320817,0.14134 -0.427836,-0.13755 z m 1.835105,-0.0442 c -0.0769,-0.20039 -0.102926,-0.92911 -0.05784,-1.61937 0.08018,-1.22758 0.102503,-1.25684 1.020636,-1.338 1.392751,-0.1231 1.68094,0.17571 1.694944,1.7574 0.01617,1.82727 -0.586396,2.10657 -0.70019,0.32453 -0.06834,-1.07025 -0.165878,-1.27375 -0.610502,-1.27375 -0.44358,0 -0.542211,0.20326 -0.609809,1.25677 -0.07754,1.20836 -0.44521,1.65343 -0.737239,0.89242 z m 19.007986,0.18912 c -0.1819,-0.0734 -0.33073,-0.2949 -0.33073,-0.49223 0,-0.25355 0.32978,-0.34408 1.12448,-0.30868 1.36236,0.0607 1.57676,-0.59289 0.33073,-1.00824 -1.2008,-0.40026 -1.45521,-0.63321 -1.45521,-1.33243 0,-0.88318 1.06003,-1.54548 2.10591,-1.31576 1.19435,0.26232 1.04835,0.92689 -0.18768,0.85434 -1.24323,-0.073 -1.37812,0.60688 -0.19844,1.0001 1.19052,0.39684 1.45521,0.63285 1.45521,1.29753 0,1.12827 -1.53606,1.83324 -2.84427,1.30537 z m 7.49338,-0.24055 c -0.89579,-0.89578 -0.23175,-3.02381 0.94355,-3.02381 0.56652,0 1.20588,0.56992 1.40991,1.25677 0.16342,0.55015 0.0935,0.59532 -0.92137,0.59532 -0.76426,0 -1.06282,0.10057 -0.98183,0.33073 0.0642,0.1823 0.48965,0.31322 0.94809,0.29171 0.52304,-0.0245 0.83171,0.0877 0.83171,0.30242 0,0.7172 -1.58435,0.89258 -2.23006,0.24686 z m 1.5686,-1.96547 c -0.0899,-0.14552 -0.39462,-0.26459 -0.67708,-0.26459 -0.28245,0 -0.51355,0.11907 -0.51355,0.26459 0,0.14552 0.30469,0.26458 0.67708,0.26458 0.384,0 0.60629,-0.11452 0.51355,-0.26458 z m 1.72433,1.86056 c -0.22395,-0.41846 -0.17222,-0.63455 0.25398,-1.06075 0.29438,-0.29438 0.78038,-0.53523 1.08001,-0.53523 0.29963,0 0.4712,-0.11906 0.38126,-0.26458 -0.0899,-0.14552 -0.51368,-0.26459 -0.94166,-0.26459 -0.83523,0 -1.04538,-0.36999 -0.35962,-0.63315 1.29852,-0.49828 2.12347,0.2558 2.27088,2.07577 l 0.0847,1.04573 -1.24415,0.0812 c -1.02002,0.0665 -1.29481,-0.0135 -1.52539,-0.44436 z m 1.76513,-0.63639 c -0.0576,-0.16397 -0.33055,-0.25705 -0.60649,-0.20683 -0.69704,0.12684 -0.81339,0.29577 -0.38576,0.56006 0.45908,0.28373 1.13193,0.0442 0.99225,-0.35323 z m 1.78791,0.81836 c -0.24084,-0.62763 -0.003,-4.29149 0.27888,-4.29149 0.14552,0 0.3015,0.58097 0.34662,1.29104 l 0.082,1.29104 0.77786,-0.74523 c 0.53072,-0.50846 0.77785,-0.62022 0.77785,-0.35177 0,0.2164 -0.12919,0.52265 -0.2871,0.68056 -0.20641,0.20641 -0.16922,0.51503 0.13229,1.09811 0.7599,1.46948 0.28552,1.98499 -0.54023,0.5871 -0.4897,-0.829 -0.89246,-0.83549 -0.89246,-0.0144 0,0.62618 -0.4848,0.95263 -0.67575,0.45503 z m 3.58617,-1.23317 c 0,-0.86453 0.11906,-1.64547 0.26458,-1.7354 0.16612,-0.10267 0.26459,0.48232 0.26459,1.57188 0,0.98055 -0.11509,1.73541 -0.26459,1.73541 -0.1467,0 -0.26458,-0.70035 -0.26458,-1.57189 z m 1.7021,1.22431 c -0.0804,-0.20961 -0.10936,-0.94827 -0.0643,-1.64145 0.0792,-1.21772 0.11229,-1.26362 0.97872,-1.35726 0.49322,-0.0533 1.05561,0.0349 1.24977,0.19607 0.44483,0.36917 0.73757,1.87039 0.50661,2.59805 -0.28202,0.88857 -0.66841,0.63587 -0.67281,-0.44002 -0.005,-1.21225 -0.33164,-1.7845 -0.89528,-1.56821 -0.29002,0.11129 -0.42358,0.49395 -0.42358,1.21356 0,1.07385 -0.41578,1.6856 -0.67915,0.99926 z m 16.13654,-0.008 c -0.23617,-0.61546 0.008,-4.27472 0.28532,-4.27472 0.14552,0 0.29956,0.8632 0.34232,1.91823 l 0.0777,1.91823 h 1.04674 c 0.75405,0 1.04674,0.11097 1.04674,0.39687 0,0.53224 -2.59577,0.57062 -2.79886,0.0414 z m 3.48863,-0.063 c -0.20671,-0.53867 -0.20705,-2.06299 -5.3e-4,-2.60103 0.31558,-0.8224 0.63373,-0.0956 0.63373,1.44766 0,1.50579 -0.29306,2.03964 -0.63315,1.15337 z m 1.80819,0.0301 c -0.55874,-0.42262 -0.42976,-0.48329 0.87548,-0.41183 1.11801,0.0612 1.08947,-0.15502 -0.0853,-0.64586 -0.73097,-0.30542 -0.92584,-0.52496 -0.8599,-0.96872 0.11404,-0.76739 0.77352,-1.14176 1.63182,-0.92634 0.95088,0.23865 0.89088,0.69537 -0.0913,0.69537 -0.43656,0 -0.79375,0.11907 -0.79375,0.26459 0,0.14552 0.22962,0.26458 0.51027,0.26458 1.10101,0 1.58026,1.31119 0.69965,1.91418 -0.4622,0.31649 -1.33658,0.23031 -1.88696,-0.18597 z m 3.65446,0.0577 c -0.31692,-0.39949 -0.58822,-2.68523 -0.40285,-3.3941 0.15642,-0.59814 0.86501,-0.68958 0.86501,-0.11163 0,0.21828 0.11906,0.39687 0.26459,0.39687 0.14552,0 0.26458,0.1786 0.26458,0.39688 0,0.21828 -0.11906,0.39687 -0.26458,0.39687 -0.14553,0 -0.26459,0.41672 -0.26459,0.92605 0,0.50932 0.11906,0.92604 0.26459,0.92604 0.14552,0 0.26458,0.17859 0.26458,0.39687 0,0.4814 -0.62863,0.52335 -0.99133,0.0661 z m 2.2481,0.045 c -0.59698,-0.34771 -0.6282,-2.15708 -0.0473,-2.73803 0.7936,-0.7936 2.23006,-0.28849 2.23006,0.78416 0,0.56892 -0.11818,0.65215 -0.92604,0.65215 -0.67978,0 -0.92604,0.11474 -0.92604,0.43149 0,0.34537 0.18483,0.4015 0.92604,0.28122 0.66952,-0.10865 0.92604,-0.0528 0.92604,0.20166 0,0.64497 -1.33406,0.8817 -2.18281,0.38735 z m 1.38906,-2.09547 c 0,-0.14552 -0.23812,-0.26459 -0.52916,-0.26459 -0.29105,0 -0.52917,0.11907 -0.52917,0.26459 0,0.14552 0.23812,0.26458 0.52917,0.26458 0.29104,0 0.52916,-0.11906 0.52916,-0.26458 z m 1.71264,2.06114 c -0.0862,-0.22472 -0.1199,-0.97335 -0.0748,-1.66361 0.081,-1.23979 0.094,-1.25609 1.06838,-1.34228 1.13156,-0.10009 1.79172,0.55417 1.79172,1.77573 0,1.83005 -0.73053,2.08367 -0.8454,0.2935 -0.0676,-1.05351 -0.16623,-1.25677 -0.60981,-1.25677 -0.427,0 -0.54535,0.20433 -0.61299,1.05833 -0.0934,1.17929 -0.47085,1.77677 -0.71708,1.1351 z m 3.68719,-0.0442 c -0.22836,-0.5951 0.002,-2.94294 0.28871,-2.94294 0.14552,0 0.30003,0.74414 0.34336,1.65364 0.0503,1.05552 -0.0245,1.65365 -0.20674,1.65365 -0.15703,0 -0.34843,-0.16396 -0.42533,-0.36435 z m 1.79675,-1.23355 0.0795,-1.65088 0.89676,-0.0972 c 1.2838,-0.13917 1.61679,0.26146 1.61679,1.94523 0,1.82878 -0.6227,1.82125 -0.74211,-0.009 -0.0657,-1.00736 -0.17318,-1.23608 -0.58081,-1.23608 -0.40763,0 -0.51509,0.22872 -0.58082,1.23609 -0.0469,0.71858 -0.22468,1.28353 -0.42468,1.34941 -0.26307,0.0866 -0.32534,-0.27523 -0.26459,-1.53756 z M 53.827187,163.59329 c -0.224158,-0.58415 0.07406,-0.88237 0.478216,-0.47822 0.238628,0.23863 0.239644,0.38654 0.0043,0.62192 -0.235379,0.23538 -0.350123,0.2012 -0.482479,-0.1437 z m 28.863597,0.0995 c -0.105609,-0.17088 -0.07296,-0.42975 0.07257,-0.57528 0.176389,-0.17639 0.328591,-0.16102 0.456602,0.0461 0.105608,0.17088 0.07296,0.42975 -0.07256,0.57527 -0.17639,0.17639 -0.328591,0.16102 -0.456602,-0.0461 z m 3.704167,0 c -0.105609,-0.17088 -0.07296,-0.42975 0.07256,-0.57528 0.17639,-0.17639 0.328592,-0.16102 0.456602,0.0461 0.105609,0.17088 0.07296,0.42975 -0.07256,0.57527 -0.17639,0.17639 -0.328592,0.16102 -0.456602,-0.0461 z m 60.063079,0.004 c -0.19514,-0.31574 0.0525,-0.79806 0.40983,-0.79806 0.32194,0 0.32403,0.71612 0.003,0.91474 -0.13547,0.0837 -0.32109,0.0312 -0.41249,-0.11668 z m 14.55209,0 c -0.19515,-0.31574 0.0525,-0.79806 0.40982,-0.79806 0.32195,0 0.32403,0.71612 0.003,0.91474 -0.13546,0.0837 -0.32108,0.0312 -0.41249,-0.11668 z m -35.9747,-0.25061 c -0.0837,-0.13547 -0.0312,-0.32109 0.11667,-0.41249 0.31575,-0.19515 0.79807,0.0525 0.79807,0.40982 0,0.32194 -0.71613,0.32403 -0.91474,0.003 z m -76.582074,-12.7342 c -1.454489,-1.31498 -4.464021,-2.81013 -6.366806,-3.16307 -1.635514,-0.30336 -2.204241,-0.67453 -1.467025,-0.95743 0.764196,-0.29325 3.507235,0.39187 5.406448,1.35036 1.903767,0.96078 4.253363,2.87779 4.253363,3.47027 0,0.6335 -0.609227,0.39991 -1.82598,-0.70013 z m 2.61973,0.72638 c 0,-0.65777 2.504725,-2.85203 4.255169,-3.72774 1.983774,-0.99244 5.143518,-1.71252 5.583589,-1.27245 0.423016,0.42302 0.0034,0.85041 -0.834966,0.85041 -1.073471,0 -3.758968,0.87941 -5.091716,1.66738 -0.623673,0.36873 -1.6046,1.15645 -2.179836,1.75048 -1.053767,1.0882 -1.73224,1.37487 -1.73224,0.73192 z m 64.205554,-0.35742 c -0.097,-0.097 -0.17639,-0.92074 -0.17639,-1.8305 0,-1.59859 -0.0305,-1.67295 -0.90754,-2.21501 -2.31487,-1.43067 -3.96097,-4.40704 -3.95721,-7.15518 0.009,-6.83513 8.2156,-11.08338 14.71644,-7.61847 6.47614,3.45174 6.32773,12.10029 -0.26331,15.34505 -1.42164,0.69987 -2.14918,0.87801 -4.06267,0.99475 l -2.3309,0.14221 -1.27576,1.25677 c -1.31836,1.29873 -1.44549,1.37755 -1.74266,1.08038 z m 4.89185,-3.33359 c 3.70763,-0.21453 6.2181,-1.65902 7.77819,-4.47545 0.6686,-1.20702 0.77953,-1.68966 0.77953,-3.39165 0,-1.702 -0.11093,-2.18464 -0.77953,-3.39166 -0.94912,-1.71345 -2.16252,-2.81513 -4.1031,-3.72534 -1.2399,-0.58156 -1.83631,-0.68821 -3.84854,-0.68821 -2.01999,0 -2.60683,0.10577 -3.86821,0.69722 -2.89988,1.35973 -4.62682,3.60366 -4.91143,6.38178 -0.26912,2.62699 1.00645,5.28142 3.34549,6.96185 1.30217,0.93552 1.33311,0.98912 1.33311,2.30954 v 1.35179 l 0.99219,-0.94868 c 0.94878,-0.90717 1.09238,-0.95447 3.2823,-1.08119 z m -5.40985,-6.70941 c -0.38182,-0.38182 -0.17033,-1.1275 0.36825,-1.29844 0.66906,-0.21235 1.1159,0.16779 0.98766,0.84025 -0.0946,0.49582 -1.00921,0.80489 -1.35591,0.45819 z m 4.46661,-0.26464 c -0.22442,-0.58483 0.45507,-1.28426 1.03242,-1.06271 0.26858,0.10307 0.40343,0.3963 0.35124,0.76379 -0.1055,0.74297 -1.12846,0.96397 -1.38366,0.29892 z m 4.49791,0 c -0.22442,-0.58483 0.45508,-1.28426 1.03243,-1.06271 0.26857,0.10307 0.40342,0.3963 0.35124,0.76379 -0.1055,0.74297 -1.12846,0.96397 -1.38367,0.29892 z m -74.141861,8.95009 c -1.600729,-1.85878 -4.24493,-3.13358 -8.167505,-3.93766 l -1.058333,-0.21694 v -5.68854 -5.68854 l 1.022662,-0.0839 c 1.738042,-0.14265 5.191429,0.68488 7.336946,1.75813 l 2.009606,1.00527 0.887542,-0.60815 c 1.655262,-1.13421 6.440807,-2.3518 8.479046,-2.15734 l 0.901698,0.086 v 5.68735 5.68736 l -1.190625,0.21521 c -4.313542,0.77968 -6.933256,2.07965 -8.271984,4.10478 -0.402246,0.60848 -0.759434,1.10628 -0.79375,1.10621 -0.03431,-7e-5 -0.554202,-0.57123 -1.155303,-1.26923 z m 0.696037,-6.5247 v -5.4128 l -1.200098,-0.70331 c -1.571267,-0.92082 -4.081385,-1.6914 -6.14209,-1.88555 l -1.653646,-0.1558 v 4.88451 4.88451 l 1.764141,0.35066 c 1.90908,0.37946 5.51475,2.04749 6.29887,2.91393 0.267118,0.29516 0.586279,0.53666 0.709247,0.53666 0.122965,0 0.223576,-2.43576 0.223576,-5.41281 z m 5.027083,2.73647 c 0.800364,-0.30551 2.199349,-0.68594 3.108854,-0.84539 l 1.653646,-0.28992 v -4.84105 -4.84105 l -0.992188,0.005 c -2.402586,0.0111 -6.224571,1.22761 -7.408333,2.35798 -0.578464,0.55237 -0.595312,0.71782 -0.595312,5.84575 v 5.2773 l 1.389062,-1.05637 c 0.763984,-0.581 2.043906,-1.30633 2.844271,-1.61184 z m 21.875096,3.5836 c 1.040101,-0.38526 1.097103,-0.45994 0.966312,-1.26592 -0.09848,-0.60686 -0.0093,-0.96415 0.305935,-1.22577 0.703955,-0.58424 1.339384,-0.007 1.269021,1.1531 -0.05543,0.9138 -0.01072,0.96451 1.190625,1.34992 l 1.248219,0.40045 -1.322916,-0.13414 c -1.681957,-0.17054 -2.113116,-0.17106 -3.571875,-0.004 l -1.190625,0.1361 1.105304,-0.40942 z m 1.937404,-1.58434 c 0,-0.22687 -0.121005,-0.3377 -0.268899,-0.2463 -0.147894,0.0914 -0.2004,0.27703 -0.116676,0.41249 0.226809,0.36699 0.385575,0.29856 0.385575,-0.16619 z m 3.882795,1.80156 c -0.06445,-0.10914 -0.01765,-0.91306 0.104018,-1.78649 0.176863,-1.26973 1.017953,-3.18716 4.196027,-9.56567 2.186157,-4.38768 4.164888,-8.16767 4.397185,-8.39997 0.544745,-0.54474 1.806961,-0.54321 2.26006,0.003 0.324548,0.39106 0.77393,1.10405 1.175665,1.86533 0.08883,0.16833 -0.829236,2.25192 -2.040144,4.63021 -2.012979,3.9536 -2.261489,4.32346 -2.899955,4.316 -0.633708,-0.007 -0.853993,0.30746 -2.38125,3.40352 -1.323591,2.68319 -1.957406,3.65948 -2.968328,4.57222 -1.283846,1.15915 -1.622523,1.33592 -1.843278,0.96211 z m 1.529863,-1.89995 c 0.08373,-0.13547 0.03122,-0.32109 -0.116676,-0.41249 -0.147894,-0.0914 -0.268899,0.0194 -0.268899,0.2463 0,0.46475 0.158766,0.53318 0.385575,0.16619 z m 3.253417,-5.71591 c 1.937838,-3.88491 2.249599,-4.68004 1.917258,-4.88985 -0.548203,-0.34611 -0.75928,-0.021 -3.07477,4.73645 -1.833446,3.767 -2.139585,4.79269 -1.430478,4.79269 0.150622,0 1.315217,-2.08768 2.58799,-4.63929 z m 2.988673,-3.05926 c 0.304149,-0.59619 0.493469,-1.14351 0.420708,-1.21627 -0.120684,-0.12068 -1.227539,1.82462 -1.227539,2.15741 0,0.39478 0.309432,0.0338 0.806831,-0.94114 z m 1.42789,-5.00149 c 1.210889,-2.3795 1.440119,-3.26291 0.92869,-3.57899 -0.50288,-0.3108 -1.125747,0.50766 -2.309363,3.03457 -1.087739,2.32221 -1.137663,2.52202 -0.708557,2.83579 0.253897,0.18566 0.55675,0.27877 0.673002,0.20692 0.116253,-0.0718 0.753555,-1.19608 1.416228,-2.49829 z m 56.767493,14.25488 c -1.47357,-0.58759 -2.91055,-2.65632 -2.91055,-4.19013 0,-1.21101 0.63593,-0.98402 0.99401,0.35481 0.68757,2.57073 2.777,3.78936 5.0251,2.93081 0.9332,-0.3564 1.3779,-0.76165 2.14327,-1.95315 1.8596,-2.89497 3.54483,-6.50833 3.67701,-7.88402 0.33632,-3.50015 -2.95152,-6.26235 -6.36121,-5.34422 -1.36572,0.36775 -3.29317,2.21698 -3.52644,3.38331 -0.1597,0.79849 -0.69419,1.1008 -1.0185,0.57607 -0.25162,-0.40713 0.61022,-2.18592 1.52757,-3.15281 2.45835,-2.59113 6.6992,-2.50162 8.92419,0.18836 1.04919,1.26845 1.64291,3.26913 1.41745,4.77643 -0.17922,1.19818 -3.09346,7.16706 -4.24572,8.696 -1.2296,1.63157 -3.78002,2.36268 -5.64618,1.61854 z m 13.32883,-3.26586 c -1.79115,-1.86934 -2.36088,-4.4027 -1.53513,-6.82613 0.45018,-1.3212 2.30403,-3.63368 2.91303,-3.63368 0.61696,0 0.42931,0.53653 -0.57736,1.6508 -1.22796,1.3592 -1.69408,2.50658 -1.69408,4.17003 0,1.66346 0.46612,2.81083 1.69408,4.17004 1.72663,1.91117 0.99308,2.34087 -0.80054,0.46894 z m -12.58553,-0.80874 c -0.74396,-0.74396 1.93318,-3.93318 3.55406,-4.23386 1.06724,-0.19798 1.91164,-0.0106 1.67533,0.37176 -0.0804,0.13005 -0.56672,0.31536 -1.08077,0.4118 -1.1838,0.22208 -2.65661,1.50298 -3.08255,2.6809 -0.29976,0.82899 -0.71024,1.12523 -1.06607,0.7694 z m 14.00728,-0.58909 c -1.81356,-1.90103 -1.67974,-4.93647 0.2997,-6.79805 0.62384,-0.58669 0.90309,-0.70376 1.13221,-0.47464 0.22912,0.22911 0.0723,0.56069 -0.63565,1.34435 -0.51688,0.57212 -1.01898,1.40083 -1.11579,1.84157 -0.25432,1.15792 0.25623,2.73945 1.16561,3.61069 0.7721,0.73973 0.84141,1.20368 0.1798,1.20368 -0.18246,0 -0.64411,-0.32742 -1.02588,-0.7276 z m 1.23144,-1.41684 c -1.09941,-1.21484 -0.39383,-4.20556 0.99219,-4.20556 0.6338,0 0.61926,0.32851 -0.041,0.92605 -0.71179,0.64415 -0.71526,2.26311 -0.006,2.90477 0.54096,0.48956 0.49319,0.93168 -0.10066,0.93168 -0.18714,0 -0.56706,-0.25062 -0.84428,-0.55694 z m -9.71796,-3.05665 c -0.10177,-0.10176 -0.1123,-0.57273 -0.0234,-1.0466 0.20596,-1.09788 -0.29537,-2.63087 -1.02824,-3.14419 -0.31289,-0.21915 -1.13531,-0.3977 -1.83185,-0.3977 -0.92971,0 -1.26404,-0.1018 -1.26404,-0.38489 0,-0.58655 1.6981,-0.80385 2.85142,-0.3649 1.50601,0.57319 2.21533,1.83118 2.12069,3.76107 -0.0715,1.45763 -0.37109,2.03072 -0.82459,1.57721 z"
         id="path1190" />
    </g>
  </g>
</svg>
